<?xml version="1.0" standalone="no"?>
<!DOCTYPE svg PUBLIC "-//W3C//DTD SVG 20010904//EN"
 "http://www.w3.org/TR/2001/REC-SVG-20010904/DTD/svg10.dtd">
<svg version="1.0" xmlns="http://www.w3.org/2000/svg"
 width="300.000000pt" height="280.000000pt" viewBox="0 0 300.000000 280.000000"
 preserveAspectRatio="xMidYMid meet">
<metadata>
Created by potrace 1.10, written by Peter Selinger 2001-2011
</metadata>
<g transform="translate(0.000000,280.000000) scale(0.100000,-0.100000)"
fill="#FFFFFF" stroke="none">
<path d="M2421 2731 c-69 -94 -153 -168 -231 -205 -63 -30 -70 -31 -200 -31
-135 1 -135 1 -273 48 l-139 48 -106 -41 c-141 -55 -209 -70 -317 -70 -144 0
-240 34 -480 169 -49 28 -95 51 -101 51 -10 0 -15 -54 -44 -525 -32 -493 73
-911 295 -1186 32 -39 55 -72 53 -74 -3 -2 -114 -45 -698 -265 l-175 -65 3
-70 c2 -39 5 -71 6 -72 1 -1 75 -5 163 -9 l162 -7 -79 -86 c-43 -47 -88 -98
-100 -113 l-21 -27 38 -51 c21 -28 42 -49 48 -47 5 2 107 34 225 72 118 37
223 72 233 77 14 7 24 3 45 -17 15 -15 52 -40 82 -55 169 -85 332 -80 525 15
50 24 243 101 430 170 187 70 352 133 367 140 26 13 50 4 28 -10 -13 -8 -13
-45 0 -45 5 0 51 -35 101 -77 51 -43 172 -144 268 -224 l176 -146 52 40 c29
22 53 44 53 49 0 5 -31 62 -70 125 -38 64 -70 118 -70 120 0 3 12 2 28 -2 45
-11 246 -45 249 -41 2 1 14 29 27 61 l23 58 -200 164 -201 164 -1 72 c-1 107
-38 167 -130 216 -22 12 -52 21 -67 21 -35 0 -35 9 -2 57 39 57 99 180 122
253 77 234 80 434 16 910 -29 211 -56 499 -49 511 3 4 1 10 -4 13 -5 3 -31
-25 -60 -63z m33 -83 c4 -25 41 -340 61 -513 1 -11 5 -36 8 -55 11 -60 16
-160 17 -300 2 -153 -5 -231 -27 -309 -8 -29 -16 -59 -17 -65 -5 -30 -39 -116
-47 -121 -5 -4 -9 -13 -9 -22 0 -9 -20 -51 -45 -94 -25 -43 -45 -87 -45 -98 0
-21 44 -61 66 -61 8 0 24 -6 37 -13 74 -41 107 -100 107 -190 0 -54 4 -69 27
-98 15 -19 43 -45 63 -58 20 -12 56 -41 80 -64 24 -23 51 -46 61 -52 9 -5 49
-36 88 -68 75 -61 88 -89 54 -120 -15 -13 -28 -14 -83 -6 -141 22 -160 22
-181 3 -24 -22 -21 -34 42 -145 27 -47 49 -90 49 -97 0 -14 -40 -52 -54 -52
-6 0 -32 20 -57 43 -25 23 -74 65 -109 92 -34 28 -86 70 -115 95 -28 25 -78
68 -109 95 -32 28 -61 50 -65 50 -12 -1 -58 50 -65 72 -10 31 -49 39 -104 20
-106 -37 -195 -69 -337 -122 -82 -31 -181 -68 -220 -82 -83 -29 -84 -29 -205
-86 -52 -24 -117 -51 -145 -58 -69 -19 -223 -16 -265 5 -18 9 -37 16 -41 16
-5 0 -41 20 -81 44 -40 24 -80 46 -88 47 -14 3 -126 -27 -195 -52 -178 -64
-285 -90 -285 -70 0 7 -4 10 -9 7 -5 -3 -11 4 -14 16 -7 24 17 61 92 141 59
63 75 100 53 120 -16 14 -142 30 -227 29 -49 0 -82 17 -88 46 -7 32 9 47 73
67 75 24 483 177 555 209 17 8 53 21 80 31 28 9 57 20 65 23 8 3 17 6 20 7 53
18 80 42 80 71 0 12 -21 50 -47 84 -61 79 -72 96 -127 201 -57 109 -114 265
-107 293 1 4 -4 14 -10 22 -7 8 -9 17 -6 20 3 3 2 17 -3 30 -5 13 -12 52 -16
86 -3 35 -10 86 -14 113 -11 66 -10 394 0 515 5 52 12 147 15 211 4 64 11 122
15 129 7 12 19 9 62 -14 176 -94 271 -137 334 -152 82 -18 205 -23 279 -11 53
9 223 63 241 78 28 22 81 19 162 -11 45 -16 82 -27 82 -24 0 4 6 2 13 -4 6 -5
37 -15 67 -20 232 -44 364 -10 514 133 44 41 82 75 87 75 4 0 10 -15 13 -32z"/>
<path d="M674 2530 c-41 -16 -38 2 -49 -375 -11 -366 16 -615 85 -780 4 -11
14 -36 21 -55 7 -19 26 -57 41 -83 15 -26 28 -50 28 -53 0 -6 58 -92 75 -111
5 -6 28 -33 50 -59 85 -100 141 -144 186 -144 69 0 107 -33 123 -105 9 -41 34
-69 85 -94 37 -19 40 -23 27 -37 -9 -8 -50 -24 -93 -36 -86 -23 -247 -27 -338
-8 -27 6 -64 13 -82 16 -25 5 -29 9 -20 18 21 18 56 36 72 36 8 0 15 3 15 8 0
4 23 15 50 25 28 10 66 34 86 53 28 29 34 41 30 66 -5 31 -30 57 -56 57 -23 0
-102 -23 -127 -37 -12 -6 -30 -13 -40 -15 -16 -2 -96 -31 -158 -57 -11 -5 -90
-34 -175 -66 -238 -87 -267 -101 -282 -127 -5 -11 -6 -17 -1 -14 4 3 96 37
203 76 107 39 283 104 390 145 167 63 197 72 209 60 13 -12 13 -18 -1 -48 -14
-29 -29 -39 -100 -66 -46 -18 -91 -39 -100 -47 -9 -8 -25 -12 -36 -9 -17 6
-24 -10 -67 -142 l-47 -147 -174 -59 c-103 -35 -169 -63 -162 -67 15 -9 55 -3
123 19 28 9 52 17 55 17 55 13 133 42 162 62 l36 25 51 -48 c151 -143 312
-158 543 -51 64 30 216 91 307 122 121 43 136 48 177 66 23 10 55 21 70 25 16
4 34 10 39 14 6 4 42 19 80 33 39 14 118 43 177 66 118 45 133 48 146 25 7
-12 13 -6 32 30 14 25 22 47 19 50 -3 3 -102 -31 -220 -75 -555 -211 -811
-310 -891 -343 -116 -49 -187 -61 -258 -46 -65 14 -142 56 -199 107 l-41 38
31 100 32 101 56 -20 c46 -16 82 -20 201 -20 141 -1 148 0 250 36 58 20 209
82 335 138 505 224 528 233 586 238 91 7 167 -14 211 -58 35 -34 38 -42 38
-93 0 -62 -1 -64 -102 -155 -36 -34 -61 -63 -55 -65 7 -2 -4 -22 -26 -47 -20
-24 -37 -54 -37 -66 0 -22 32 -59 86 -101 16 -12 58 -45 94 -72 66 -51 147
-97 157 -88 5 6 -147 129 -254 207 -34 25 -61 49 -59 55 3 12 208 194 219 194
10 1 281 -218 286 -231 2 -6 -5 -8 -15 -4 -11 3 -62 12 -114 21 -52 8 -117 20
-143 26 -26 6 -50 9 -53 6 -8 -7 135 -247 146 -247 18 0 10 24 -35 107 -44 82
-44 90 -3 84 4 0 31 -4 60 -7 29 -3 70 -10 92 -14 34 -7 42 -5 63 16 l24 24
-26 32 c-15 17 -39 40 -53 52 -15 11 -45 36 -67 55 -89 78 -121 102 -147 108
-32 6 -32 7 -17 34 6 11 11 44 11 73 1 43 -4 61 -28 96 -44 66 -93 86 -232 95
-36 3 -66 6 -68 8 -2 2 22 30 53 63 63 64 74 78 115 140 33 51 52 96 84 193
37 116 39 139 38 401 -1 194 -6 278 -24 405 -12 88 -26 189 -30 225 -6 48 -13
69 -30 82 -28 23 -30 23 -71 -5 -172 -116 -291 -132 -534 -72 -11 2 -17 4
-105 33 -83 28 -107 28 -205 -2 -206 -63 -264 -74 -369 -72 -106 2 -173 21
-293 83 -45 24 -89 43 -98 43 -8 0 -15 5 -15 10 0 12 -7 12 -36 0z m285 -150
c46 -15 89 -21 151 -21 121 0 196 14 383 73 l98 31 97 -32 c155 -50 230 -64
332 -64 133 0 211 29 346 128 20 15 20 13 48 -198 57 -439 56 -719 -4 -898
-44 -132 -91 -209 -189 -312 -55 -57 -165 -123 -299 -177 -26 -10 -159 -68
-297 -129 l-249 -111 -53 37 c-29 20 -54 39 -54 42 -1 3 -3 21 -5 40 -5 69
-57 111 -139 111 -49 0 -51 1 -122 78 -289 307 -370 607 -341 1268 l12 270
110 -57 c61 -32 140 -67 175 -79z"/>
<path d="M813 2320 c-16 -6 -23 -18 -23 -35 0 -22 8 -30 40 -42 42 -17 54 -43
20 -43 -11 0 -29 5 -40 12 -27 17 -37 2 -15 -22 22 -24 67 -26 90 -4 24 24 15
47 -27 67 -21 10 -38 25 -38 33 0 19 19 18 42 -3 29 -26 46 -1 19 26 -23 23
-34 25 -68 11z"/>
<path d="M965 2320 c-3 -5 -14 -33 -24 -62 -11 -29 -22 -61 -26 -70 -5 -13 -2
-18 9 -18 9 0 19 7 22 15 4 9 19 15 35 15 17 0 32 -6 35 -15 6 -14 34 -22 34
-9 0 3 -12 39 -26 80 -25 68 -44 89 -59 64z m29 -52 c9 -35 8 -38 -15 -38 -15
0 -19 4 -15 16 3 9 6 22 6 30 0 22 17 16 24 -8z"/>
<path d="M1220 2263 c0 -34 -3 -68 -6 -77 -4 -12 0 -16 15 -16 20 0 21 4 15
35 -5 28 -3 35 10 35 9 0 24 -16 33 -35 10 -21 24 -35 35 -35 23 0 23 5 -4 42
-19 28 -20 31 -5 40 20 10 23 53 5 64 -6 4 -31 8 -55 8 l-43 1 0 -62z m80 17
c0 -16 -7 -20 -30 -20 -23 0 -30 4 -30 20 0 16 7 20 30 20 23 0 30 -4 30 -20z"/>
<path d="M1360 2251 l0 -81 55 0 c42 0 55 3 55 15 0 11 -11 15 -40 15 -33 0
-40 3 -40 20 0 16 7 20 35 20 19 0 35 5 35 10 0 6 -16 10 -35 10 -28 0 -35 4
-35 20 0 17 7 20 41 20 61 0 45 24 -19 28 l-52 3 0 -80z"/>
<path d="M1500 2250 l0 -80 39 0 c45 0 67 17 76 58 13 59 -26 102 -91 102 -23
0 -24 -2 -24 -80z m81 26 c7 -14 9 -36 5 -50 -5 -21 -13 -26 -36 -26 -29 0
-30 1 -30 50 0 47 2 50 25 50 17 0 29 -8 36 -24z"/>
<path d="M1710 2250 c0 -66 3 -80 16 -80 12 0 15 8 12 33 -3 30 -1 32 27 32
28 0 30 -2 27 -32 -3 -25 0 -33 12 -33 13 0 16 14 16 81 0 60 -3 80 -12 76 -7
-2 -13 -17 -13 -33 0 -26 -4 -29 -30 -29 -28 0 -30 2 -27 33 3 24 0 32 -12 32
-13 0 -16 -14 -16 -80z"/>
<path d="M1857 2323 c-4 -3 -7 -39 -7 -80 l0 -73 55 0 c42 0 55 3 55 15 0 11
-11 15 -40 15 -34 0 -40 3 -40 21 0 18 5 21 35 17 27 -3 35 0 35 12 0 12 -8
15 -35 12 -30 -4 -35 -1 -35 17 0 18 6 21 40 21 29 0 40 4 40 15 0 11 -12 15
-48 15 -27 0 -52 -3 -55 -7z"/>
<path d="M2022 2308 c-36 -98 -45 -129 -38 -135 4 -4 13 0 20 10 16 21 76 24
76 3 0 -8 6 -17 13 -19 8 -4 4 -12 -13 -27 -44 -37 -116 -69 -181 -80 -79 -14
-184 5 -273 49 l-59 29 -106 -41 c-102 -40 -110 -42 -222 -42 -114 0 -116 0
-188 38 -40 21 -75 36 -78 33 -8 -8 16 -251 33 -331 38 -184 120 -359 224
-483 67 -81 217 -196 327 -253 l83 -43 72 50 c154 104 286 265 347 423 16 43
40 124 51 182 19 91 21 127 17 289 -4 171 -6 192 -33 275 -31 95 -56 119 -72
73z m38 -60 c0 -11 -8 -18 -20 -18 -23 0 -23 0 -9 37 8 22 12 24 19 13 6 -8
10 -23 10 -32z m-439 -175 c73 -35 159 -52 246 -48 62 3 138 20 153 35 3 3 16
11 29 18 41 24 46 6 45 -176 0 -139 -4 -182 -23 -257 -13 -49 -26 -94 -30 -98
-4 -4 -19 9 -33 30 -24 36 -94 83 -124 83 -12 0 -34 29 -34 45 0 4 11 4 24 1
40 -10 66 33 66 107 0 75 -25 110 -71 100 -16 -3 -29 -1 -29 4 0 6 -10 22 -23
36 -17 20 -32 27 -59 27 -38 0 -41 -3 -79 -52 -18 -24 -27 -28 -73 -28 -49 0
-55 3 -89 40 -26 29 -43 40 -64 40 -35 -1 -70 -29 -84 -68 -7 -22 -22 -34 -54
-47 -83 -31 -117 -102 -78 -162 10 -15 45 -39 79 -54 34 -16 64 -33 66 -39 7
-21 -4 -90 -14 -90 -6 0 -27 14 -48 30 -76 60 -105 26 -101 -116 2 -49 37 -68
96 -52 45 12 80 4 80 -18 0 -5 6 -24 14 -41 10 -25 21 -34 46 -39 39 -7 95 21
95 47 0 42 11 49 70 49 58 0 90 -15 90 -42 0 -25 34 -48 71 -48 43 0 63 21 79
80 8 30 18 39 75 65 36 16 65 35 65 43 0 7 4 11 9 7 27 -16 -122 -233 -206
-303 -89 -73 -103 -83 -103 -75 0 4 -5 0 -11 -10 -21 -36 -57 -40 -109 -13
-56 30 -118 69 -142 90 -10 9 -21 16 -25 16 -5 0 -42 33 -84 73 -75 70 -182
213 -173 229 3 4 1 8 -4 8 -11 0 -66 126 -77 175 -4 17 -14 49 -21 73 -32 99
-53 320 -29 315 6 -2 37 -12 69 -24 108 -38 280 -22 411 37 28 13 53 23 56 23
3 1 30 -11 60 -26z m-129 -160 l3 -37 114 -4 114 -3 -7 41 -6 40 45 0 45 0 0
-45 c0 -41 2 -45 24 -45 13 0 29 7 36 15 16 20 36 19 44 -1 3 -9 6 -45 6 -80
0 -56 -2 -64 -19 -64 -12 0 -21 9 -25 25 -5 21 -53 65 -59 54 -1 -2 -1 -41 1
-86 3 -71 6 -83 21 -83 33 0 107 -31 134 -56 54 -50 22 -102 -87 -139 l-57
-20 3 -50 3 -50 -42 -3 -43 -3 0 45 0 46 -116 0 -116 0 7 -50 7 -50 -46 0 -46
0 0 54 0 55 -55 6 c-44 6 -59 4 -74 -9 -10 -9 -25 -16 -34 -16 -15 0 -17 12
-17 80 0 44 4 80 8 80 5 0 21 -14 38 -31 30 -32 93 -69 117 -69 12 0 14 16 10
88 -6 107 -7 112 -33 112 -23 0 -96 34 -122 58 -10 8 -18 28 -18 43 0 34 49
71 119 89 43 11 43 12 37 49 -7 46 -3 51 45 51 36 0 38 -1 41 -37z"/>
<path d="M1494 1835 c3 -9 6 -40 6 -69 l0 -53 103 -21 c56 -12 106 -22 110
-22 4 0 6 39 5 87 l-3 88 -114 3 c-103 4 -113 2 -107 -13z m170 -21 c11 -4 16
-19 16 -50 0 -24 -3 -44 -7 -45 -5 0 -16 -2 -25 -4 -10 -2 -18 1 -18 7 0 6 -9
8 -20 5 -11 -3 -23 -1 -26 4 -3 5 -13 9 -24 9 -20 0 -34 38 -24 64 5 12 20 16
59 16 29 0 60 -3 69 -6z"/>
<path d="M1393 1805 c-28 -20 -29 -46 -3 -70 26 -24 32 -17 28 39 -3 46 -3 46
-25 31z"/>
<path d="M1503 1603 l2 -28 108 -3 c66 -2 107 1 107 7 0 6 -17 13 -37 17 -21
3 -66 12 -101 20 -82 18 -81 18 -79 -13z"/>
<path d="M1815 1520 c0 -28 4 -50 10 -50 20 0 55 31 55 50 0 23 -26 50 -48 50
-14 0 -17 -10 -17 -50z"/>
<path d="M1510 1479 c0 -20 6 -39 13 -42 6 -2 56 -2 110 1 l97 5 0 37 0 38
-110 -1 -110 -1 0 -37z"/>
<path d="M2135 2322 c-3 -3 -5 -38 -5 -79 0 -58 3 -73 15 -73 11 0 15 11 15
36 0 43 16 42 45 -4 11 -17 28 -31 38 -32 22 0 22 5 -5 41 -21 28 -22 31 -5
40 24 14 21 46 -5 63 -22 14 -82 19 -93 8z m80 -42 c0 -9 -11 -16 -27 -18 -23
-3 -28 1 -28 18 0 17 5 21 28 18 16 -2 27 -9 27 -18z"/>
<path d="M2270 2315 c0 -8 10 -15 22 -17 20 -3 22 -8 19 -65 -2 -52 0 -63 13
-63 13 0 16 13 16 65 0 63 1 65 26 65 16 0 24 5 22 13 -6 17 -118 20 -118 2z"/>
<path d="M1093 2312 c-18 -11 -32 -57 -26 -83 14 -58 72 -78 108 -39 15 16 16
23 6 33 -10 9 -14 8 -22 -5 -15 -27 -48 -22 -60 8 -18 50 16 90 51 59 33 -30
55 -12 24 19 -16 17 -61 21 -81 8z"/>
<path d="M1637 2233 c-15 -14 -6 -23 23 -23 20 0 30 5 30 15 0 15 -40 21 -53
8z"/>
<path d="M2350 2019 c0 -31 -1 -31 -37 -24 -21 3 -48 9 -60 12 -16 3 -23 1
-23 -9 0 -10 22 -19 65 -27 37 -8 67 -12 69 -10 2 2 6 23 9 47 4 32 2 42 -9
42 -9 0 -14 -11 -14 -31z"/>
<path d="M813 1948 c-40 -13 -63 -25 -63 -35 0 -11 7 -13 30 -8 25 6 30 3 36
-19 3 -13 12 -27 19 -30 22 -8 54 5 60 25 7 21 -4 90 -14 88 -3 -1 -34 -10
-68 -21z m60 -30 c6 -19 -3 -38 -18 -38 -12 0 -25 21 -25 41 0 14 38 11 43 -3z"/>
<path d="M2242 1943 c-18 -7 -32 -46 -25 -72 10 -40 97 -67 121 -38 6 6 13 24
17 39 13 50 -57 94 -113 71z m78 -38 c22 -26 8 -50 -29 -50 -37 0 -58 22 -48
49 8 20 60 21 77 1z"/>
<path d="M842 1826 c-34 -11 -61 -25 -59 -31 5 -11 22 -11 50 0 25 10 23 -27
-3 -50 -11 -10 -20 -28 -20 -39 1 -18 5 -17 30 14 17 19 30 29 30 22 0 -19 48
-14 59 6 10 19 -5 104 -18 100 -3 0 -34 -10 -69 -22z m64 -31 c4 -8 3 -22 0
-31 -5 -13 -9 -14 -21 -4 -8 7 -15 21 -15 31 0 23 28 25 36 4z"/>
<path d="M2216 1794 c-9 -8 -16 -31 -16 -49 0 -28 6 -37 30 -50 43 -22 77 -19
96 10 22 33 11 71 -26 90 -37 19 -64 19 -84 -1z m84 -29 c22 -26 8 -50 -29
-50 -37 0 -58 22 -48 49 8 20 60 21 77 1z"/>
<path d="M883 1697 c-35 -12 -63 -27 -63 -34 0 -17 -1 -17 75 8 60 19 77 31
58 42 -5 2 -36 -5 -70 -16z"/>
<path d="M2188 1664 c-13 -12 2 -24 29 -24 21 0 24 -3 19 -22 -3 -13 -6 -26
-6 -30 0 -4 -11 -3 -25 2 -15 6 -26 6 -30 0 -11 -17 3 -27 47 -33 24 -4 53
-10 66 -13 16 -5 22 -2 22 10 0 10 -9 16 -23 16 -31 0 -35 5 -29 36 4 22 8 24
33 19 22 -5 29 -3 29 8 0 9 -15 16 -42 21 -24 3 -52 8 -63 11 -11 4 -24 3 -27
-1z"/>
<path d="M886 1641 c-28 -9 -52 -23 -54 -29 -5 -16 13 -15 49 4 48 24 58 10
11 -16 -60 -34 -56 -54 9 -46 61 8 60 -10 -2 -20 -23 -4 -39 -12 -39 -20 0 -8
4 -14 8 -14 17 0 132 42 132 48 -1 25 -20 34 -59 28 -50 -8 -53 3 -6 28 21 11
35 27 35 38 0 22 -19 22 -84 -1z"/>
<path d="M2177 1522 c-23 -26 -21 -55 6 -80 26 -24 85 -30 105 -10 27 27 2
102 -28 83 -8 -5 -6 -13 6 -26 16 -18 16 -21 2 -35 -10 -10 -24 -13 -42 -8
-33 8 -44 30 -28 55 24 38 8 53 -21 21z"/>
<path d="M870 1470 c0 -5 9 -10 19 -10 24 0 36 -43 19 -69 -23 -38 1 -33 56
10 30 24 55 52 55 62 1 15 -9 17 -74 17 -43 0 -75 -4 -75 -10z m110 -20 c0 -5
-9 -14 -20 -20 -11 -6 -20 -9 -20 -6 0 2 -3 11 -6 20 -5 12 0 16 20 16 14 0
26 -4 26 -10z"/>
<path d="M2157 1393 c-4 -3 -7 -21 -7 -39 0 -62 56 -64 75 -3 4 11 12 18 18
16 20 -6 20 -38 0 -52 -22 -16 -12 -29 15 -21 25 8 36 49 22 77 -16 30 -61 22
-78 -13 -7 -16 -17 -28 -23 -28 -12 0 -12 37 1 45 6 3 10 10 10 16 0 10 -23
12 -33 2z"/>
<path d="M966 1361 c-54 -19 -80 -49 -32 -37 42 11 50 -2 22 -39 -15 -19 -26
-38 -26 -44 0 -19 18 -12 38 16 17 23 22 25 35 14 12 -10 21 -10 38 -1 18 10
20 18 15 48 -3 21 -6 43 -6 50 0 16 -24 14 -84 -7z m67 -33 c11 -39 -14 -53
-33 -18 -6 11 -8 25 -5 30 11 17 32 11 38 -12z"/>
<path d="M1037 1234 c-17 -20 -41 -37 -58 -41 -51 -10 -35 -31 24 -30 28 1 63
-2 75 -6 20 -8 23 -6 20 10 -2 11 -13 19 -31 21 -33 4 -33 9 -5 39 14 15 18
27 12 33 -6 6 -20 -3 -37 -26z"/>
<path d="M1158 1002 c-26 -5 -25 -62 1 -62 20 0 35 36 23 55 -4 6 -15 9 -24 7z"/>
<path d="M1227 1003 c-8 -15 0 -67 10 -70 6 -2 18 3 26 11 13 14 16 14 21 0 4
-12 13 -14 32 -10 36 9 68 41 60 61 -9 25 -41 14 -41 -15 0 -17 -6 -25 -20
-27 -11 -2 -14 0 -7 3 17 8 15 22 -5 27 -17 4 -17 5 0 6 21 1 23 21 2 21 -9 0
-19 -10 -24 -22 l-8 -22 -5 22 c-6 21 -32 30 -41 15z"/>
<path d="M1392 973 c3 -44 25 -54 53 -26 13 13 20 14 23 5 8 -24 22 -11 22 21
0 25 -3 29 -11 17 -8 -11 -12 -12 -16 -2 -8 21 -23 13 -23 -13 0 -19 -5 -25
-22 -25 -22 1 -22 1 -3 12 19 11 19 11 0 19 -17 7 -18 8 -2 8 24 1 21 21 -4
21 -17 0 -20 -5 -17 -37z"/>
<path d="M1500 977 c0 -41 7 -49 31 -36 23 12 25 55 3 63 -28 11 -34 6 -34
-27z m38 -4 c-5 -25 -28 -28 -28 -4 0 12 6 21 16 21 9 0 14 -7 12 -17z"/>
<path d="M1562 973 c2 -27 8 -39 21 -41 9 -2 17 1 17 7 0 6 -8 11 -17 11 -16
1 -16 2 2 12 19 11 19 11 0 19 -17 7 -18 8 -2 8 24 1 21 21 -4 21 -17 0 -20
-5 -17 -37z"/>
<path d="M1681 997 c-23 -23 -4 -71 25 -60 20 7 17 24 -2 21 -26 -5 -28 21 -3
30 17 7 19 10 7 15 -9 3 -21 0 -27 -6z"/>
<path d="M1730 975 c0 -38 22 -57 43 -36 8 8 5 11 -13 12 -17 1 -20 3 -7 6 9
2 17 8 17 13 0 5 -8 11 -17 13 -17 4 -17 5 0 6 24 1 22 21 -3 21 -16 0 -20 -7
-20 -35z"/>
<path d="M1800 1000 c0 -26 12 -60 21 -60 5 0 9 6 9 14 0 8 5 16 12 18 7 3 9
11 3 24 -8 18 -8 18 -12 1 -5 -18 -5 -18 -19 0 -10 14 -13 15 -14 3z"/>
<path d="M1893 992 c3 -12 2 -20 -3 -17 -4 3 -10 -4 -13 -14 -3 -15 1 -18 19
-17 28 1 31 23 8 52 -15 19 -15 18 -11 -4z"/>
<path d="M1935 990 c2 -14 5 -31 5 -37 0 -7 5 -13 10 -13 6 0 10 9 10 19 0 11
5 23 10 26 6 4 8 11 4 16 -4 6 -11 6 -19 -1 -10 -8 -15 -7 -19 2 -3 7 -4 2 -1
-12z"/>
<path d="M1610 970 c0 -30 14 -41 23 -17 4 10 6 10 6 0 2 -29 21 -10 20 20 0
25 -2 28 -8 13 -7 -18 -8 -18 -14 -3 -10 27 -27 19 -27 -13z"/>
<path d="M2007 793 c-11 -11 -8 -153 3 -153 6 0 10 9 10 20 0 29 37 45 66 29
42 -22 37 -2 -12 55 -50 57 -56 61 -67 49z m47 -74 c-12 -20 -34 -8 -34 18 0
25 1 26 20 8 11 -10 17 -22 14 -26z"/>
<path d="M1910 756 c0 -2 7 -20 15 -39 21 -51 20 -52 -24 -18 -39 31 -77 42
-68 19 3 -7 14 -37 23 -65 10 -29 24 -53 31 -53 17 0 16 14 -3 51 -22 44 -12
46 33 5 21 -19 44 -32 50 -28 15 10 -25 132 -43 132 -8 0 -14 -2 -14 -4z"/>
<path d="M1780 704 c0 -4 8 -28 17 -56 15 -41 16 -50 4 -57 -24 -15 -39 -1
-56 50 -9 27 -20 49 -25 49 -20 0 -19 -22 4 -74 20 -46 29 -56 49 -56 14 0 35
8 48 19 l23 19 -19 56 c-11 31 -25 56 -32 56 -7 0 -13 -3 -13 -6z"/>
<path d="M1595 638 c-11 -6 -21 -12 -22 -13 -4 -2 38 -109 46 -118 12 -12 80
24 87 45 7 22 -3 57 -24 81 -17 19 -57 22 -87 5z m67 -25 c24 -21 23 -60 -1
-73 -27 -14 -26 -15 -40 31 -10 34 -10 43 1 50 18 12 19 11 40 -8z"/>
<path d="M1480 556 c0 -24 -3 -57 -6 -75 l-6 -31 -38 28 c-37 26 -38 27 -23
55 8 16 12 31 9 34 -12 12 -35 -8 -41 -36 -9 -41 -23 -48 -31 -16 -3 14 -13
25 -21 25 -16 0 -16 0 12 -83 21 -63 42 -71 37 -14 -4 43 2 45 42 13 24 -20
32 -22 57 -13 17 7 29 19 29 29 0 25 45 41 70 26 39 -25 31 2 -15 51 -60 64
-75 65 -75 7z m50 -22 c0 -8 -7 -14 -15 -14 -10 0 -15 10 -15 26 0 22 2 25 15
14 8 -7 15 -19 15 -26z"/>
<path d="M255 525 c16 -7 72 -16 122 -20 116 -9 118 -16 29 -113 -69 -75 -92
-110 -81 -120 7 -7 244 236 245 249 0 8 -163 19 -264 18 -76 -1 -79 -1 -51
-14z"/>
</g>
</svg>
